<?xml version="1.0"?>
<svg xmlns="http://www.w3.org/2000/svg" id="Icons"
     viewBox="0 0 74 74" width="512" height="512" fill="orange">
    <path
            d="M60,72a1,1,0,0,1-.571-.179L37,56.218l-22.429,15.6A1,1,0,0,1,13,71V7a5.006,5.006,0,0,1,5-5H56a5.006,5.006,0,0,1,5,5V71a1,1,0,0,1-1,1ZM37,54a1,1,0,0,1,.571.179L59,69.086V7a3,3,0,0,0-3-3H18a3,3,0,0,0-3,3V69.086L36.429,54.179A1,1,0,0,1,37,54Z"/>
    <path
            d="M46.2,41.67a1,1,0,0,1-.588-.191L37,35.216l-8.612,6.262a1,1,0,0,1-1.539-1.117l3.287-10.129-8.613-6.263a1,1,0,0,1,.588-1.809H32.754l3.295-10.129a1,1,0,0,1,1.9,0L41.246,22.16H51.89a1,1,0,0,1,.588,1.809l-8.613,6.263,3.287,10.129A1,1,0,0,1,46.2,41.67ZM37,32.98a1,1,0,0,1,.588.191l6.711,4.88-2.561-7.893a1,1,0,0,1,.363-1.117l6.713-4.881H40.52a1,1,0,0,1-.951-.691L37,15.573l-2.568,7.9a1,1,0,0,1-.951.691H25.186L31.9,29.042a1,1,0,0,1,.363,1.117L29.7,38.051l6.711-4.88A1,1,0,0,1,37,32.98Z"/>
</svg>
